<mxfile host="app.diagrams.net" agent="Mozilla/5.0 (Macintosh; Intel Mac OS X 10_15_7) AppleWebKit/605.1.15 (KHTML, like Gecko) Version/17.6 Safari/605.1.15" version="25.0.3">
  <diagram name="Page-1" id="Hw4vmwSv-MJ6xelNxArQ">
    <mxGraphModel dx="922" dy="619" grid="1" gridSize="10" guides="1" tooltips="1" connect="1" arrows="1" fold="1" page="1" pageScale="1" pageWidth="1169" pageHeight="827" math="0" shadow="0">
      <root>
        <mxCell id="0" />
        <mxCell id="1" parent="0" />
        <object label="Гость" id="OOqJBxfGVuUi6IXpPPiL-3">
          <mxCell style="shape=umlActor;verticalLabelPosition=bottom;verticalAlign=top;html=1;outlineConnect=0;metaEdit=0;" vertex="1" parent="1">
            <mxGeometry x="607" y="129" width="30" height="60" as="geometry" />
          </mxCell>
        </object>
        <mxCell id="OOqJBxfGVuUi6IXpPPiL-6" value="Зарегестрироваться" style="ellipse;whiteSpace=wrap;html=1;" vertex="1" parent="1">
          <mxGeometry x="400" y="20" width="120" height="80" as="geometry" />
        </mxCell>
        <mxCell id="OOqJBxfGVuUi6IXpPPiL-7" value="Просматривать&amp;nbsp;&lt;div&gt;общедоступные&lt;/div&gt;&lt;div&gt;заметки&lt;/div&gt;" style="ellipse;whiteSpace=wrap;html=1;" vertex="1" parent="1">
          <mxGeometry x="720" y="20" width="120" height="80" as="geometry" />
        </mxCell>
        <mxCell id="OOqJBxfGVuUi6IXpPPiL-8" value="" style="endArrow=none;html=1;rounded=0;" edge="1" parent="1" source="OOqJBxfGVuUi6IXpPPiL-3" target="OOqJBxfGVuUi6IXpPPiL-7">
          <mxGeometry width="50" height="50" relative="1" as="geometry">
            <mxPoint x="637" y="152" as="sourcePoint" />
            <mxPoint x="845" y="252" as="targetPoint" />
          </mxGeometry>
        </mxCell>
        <mxCell id="OOqJBxfGVuUi6IXpPPiL-9" value="" style="endArrow=none;html=1;rounded=0;" edge="1" parent="1" source="OOqJBxfGVuUi6IXpPPiL-6" target="OOqJBxfGVuUi6IXpPPiL-3">
          <mxGeometry width="50" height="50" relative="1" as="geometry">
            <mxPoint x="795" y="302" as="sourcePoint" />
            <mxPoint x="605" y="152" as="targetPoint" />
          </mxGeometry>
        </mxCell>
        <object label="Пользователь" id="OOqJBxfGVuUi6IXpPPiL-10">
          <mxCell style="shape=umlActor;verticalLabelPosition=bottom;verticalAlign=top;html=1;outlineConnect=0;metaEdit=0;" vertex="1" parent="1">
            <mxGeometry x="607" y="282" width="30" height="60" as="geometry" />
          </mxCell>
        </object>
        <mxCell id="OOqJBxfGVuUi6IXpPPiL-11" value="" style="endArrow=block;html=1;rounded=0;endFill=0;" edge="1" parent="1" source="OOqJBxfGVuUi6IXpPPiL-10">
          <mxGeometry width="50" height="50" relative="1" as="geometry">
            <mxPoint x="622" y="276" as="sourcePoint" />
            <mxPoint x="622" y="216" as="targetPoint" />
          </mxGeometry>
        </mxCell>
        <mxCell id="OOqJBxfGVuUi6IXpPPiL-13" value="Создать заметку" style="ellipse;whiteSpace=wrap;html=1;" vertex="1" parent="1">
          <mxGeometry x="700" y="129" width="120" height="80" as="geometry" />
        </mxCell>
        <mxCell id="OOqJBxfGVuUi6IXpPPiL-14" value="Отредактировать заметку" style="ellipse;whiteSpace=wrap;html=1;" vertex="1" parent="1">
          <mxGeometry x="950" y="170" width="120" height="80" as="geometry" />
        </mxCell>
        <mxCell id="OOqJBxfGVuUi6IXpPPiL-30" value="" style="endArrow=none;html=1;rounded=0;entryX=0.255;entryY=0.941;entryDx=0;entryDy=0;entryPerimeter=0;" edge="1" parent="1" source="OOqJBxfGVuUi6IXpPPiL-10" target="OOqJBxfGVuUi6IXpPPiL-13">
          <mxGeometry width="50" height="50" relative="1" as="geometry">
            <mxPoint x="645" y="302" as="sourcePoint" />
            <mxPoint x="707.5525018753835" y="257.9221552847599" as="targetPoint" />
          </mxGeometry>
        </mxCell>
        <mxCell id="OOqJBxfGVuUi6IXpPPiL-31" value="Пользоваться&lt;div&gt;чатом&lt;/div&gt;" style="ellipse;whiteSpace=wrap;html=1;" vertex="1" parent="1">
          <mxGeometry x="430" y="185" width="120" height="80" as="geometry" />
        </mxCell>
        <mxCell id="OOqJBxfGVuUi6IXpPPiL-42" value="" style="endArrow=none;html=1;rounded=0;" edge="1" parent="1" source="OOqJBxfGVuUi6IXpPPiL-10" target="OOqJBxfGVuUi6IXpPPiL-31">
          <mxGeometry width="50" height="50" relative="1" as="geometry">
            <mxPoint x="600" y="300" as="sourcePoint" />
            <mxPoint x="550" y="290" as="targetPoint" />
          </mxGeometry>
        </mxCell>
        <mxCell id="OOqJBxfGVuUi6IXpPPiL-43" value="Отправить сообщение" style="ellipse;whiteSpace=wrap;html=1;" vertex="1" parent="1">
          <mxGeometry x="250" y="60" width="120" height="80" as="geometry" />
        </mxCell>
        <mxCell id="OOqJBxfGVuUi6IXpPPiL-50" value="Прикрепить&lt;div&gt;файл к сообщению&lt;/div&gt;" style="ellipse;whiteSpace=wrap;html=1;" vertex="1" parent="1">
          <mxGeometry x="53" y="20" width="120" height="80" as="geometry" />
        </mxCell>
        <object label="" id="OOqJBxfGVuUi6IXpPPiL-52">
          <mxCell style="endArrow=blockThin;dashed=1;endFill=1;endSize=12;html=1;rounded=0;metaEdit=0;" edge="1" parent="1" source="OOqJBxfGVuUi6IXpPPiL-50" target="OOqJBxfGVuUi6IXpPPiL-43">
            <mxGeometry x="0.003" width="160" relative="1" as="geometry">
              <mxPoint x="170" y="145" as="sourcePoint" />
              <mxPoint x="370" y="177" as="targetPoint" />
              <mxPoint as="offset" />
            </mxGeometry>
          </mxCell>
        </object>
        <mxCell id="OOqJBxfGVuUi6IXpPPiL-53" value="&quot;extend&quot;" style="text;html=1;align=center;verticalAlign=middle;whiteSpace=wrap;rounded=0;rotation=10;" vertex="1" parent="1">
          <mxGeometry x="180" y="54" width="60" height="30" as="geometry" />
        </mxCell>
        <mxCell id="OOqJBxfGVuUi6IXpPPiL-55" value="Искать заметку по ключевым словам (по заголовкам)" style="ellipse;whiteSpace=wrap;html=1;" vertex="1" parent="1">
          <mxGeometry x="415" y="294" width="120" height="80" as="geometry" />
        </mxCell>
        <mxCell id="OOqJBxfGVuUi6IXpPPiL-56" value="Поменять язык приложения (RU/EN)" style="ellipse;whiteSpace=wrap;html=1;" vertex="1" parent="1">
          <mxGeometry x="562" y="10" width="120" height="80" as="geometry" />
        </mxCell>
        <mxCell id="OOqJBxfGVuUi6IXpPPiL-57" value="" style="endArrow=none;html=1;rounded=0;" edge="1" parent="1" source="OOqJBxfGVuUi6IXpPPiL-3" target="OOqJBxfGVuUi6IXpPPiL-56">
          <mxGeometry width="50" height="50" relative="1" as="geometry">
            <mxPoint x="620" y="120" as="sourcePoint" />
            <mxPoint x="621" y="100" as="targetPoint" />
          </mxGeometry>
        </mxCell>
        <mxCell id="OOqJBxfGVuUi6IXpPPiL-58" value="Изменение&amp;nbsp;&lt;div&gt;профиля&lt;/div&gt;" style="ellipse;whiteSpace=wrap;html=1;" vertex="1" parent="1">
          <mxGeometry x="700" y="374" width="120" height="80" as="geometry" />
        </mxCell>
        <mxCell id="OOqJBxfGVuUi6IXpPPiL-60" value="Изменение аватарки" style="ellipse;whiteSpace=wrap;html=1;" vertex="1" parent="1">
          <mxGeometry x="910" y="454" width="120" height="80" as="geometry" />
        </mxCell>
        <object label="" id="OOqJBxfGVuUi6IXpPPiL-63">
          <mxCell style="endArrow=blockThin;dashed=1;endFill=1;endSize=12;html=1;rounded=0;metaEdit=0;" edge="1" parent="1" source="OOqJBxfGVuUi6IXpPPiL-60" target="OOqJBxfGVuUi6IXpPPiL-58">
            <mxGeometry x="0.003" width="160" relative="1" as="geometry">
              <mxPoint x="800" y="430" as="sourcePoint" />
              <mxPoint x="760" y="470" as="targetPoint" />
              <mxPoint as="offset" />
            </mxGeometry>
          </mxCell>
        </object>
        <mxCell id="OOqJBxfGVuUi6IXpPPiL-65" value="&quot;extend&quot;" style="text;html=1;align=center;verticalAlign=middle;whiteSpace=wrap;rounded=0;rotation=20;" vertex="1" parent="1">
          <mxGeometry x="853" y="436" width="46" height="20" as="geometry" />
        </mxCell>
        <mxCell id="OOqJBxfGVuUi6IXpPPiL-68" value="" style="endArrow=none;html=1;rounded=0;" edge="1" parent="1" source="OOqJBxfGVuUi6IXpPPiL-58" target="OOqJBxfGVuUi6IXpPPiL-10">
          <mxGeometry width="50" height="50" relative="1" as="geometry">
            <mxPoint x="700" y="450" as="sourcePoint" />
            <mxPoint x="640" y="320" as="targetPoint" />
          </mxGeometry>
        </mxCell>
        <mxCell id="OOqJBxfGVuUi6IXpPPiL-69" value="" style="endArrow=none;html=1;rounded=0;" edge="1" parent="1" source="OOqJBxfGVuUi6IXpPPiL-55" target="OOqJBxfGVuUi6IXpPPiL-10">
          <mxGeometry width="50" height="50" relative="1" as="geometry">
            <mxPoint x="560" y="370" as="sourcePoint" />
            <mxPoint x="610" y="320" as="targetPoint" />
          </mxGeometry>
        </mxCell>
        <object label="Модератор" id="OOqJBxfGVuUi6IXpPPiL-70">
          <mxCell style="shape=umlActor;verticalLabelPosition=bottom;verticalAlign=top;html=1;outlineConnect=0;metaEdit=1;" vertex="1" parent="1">
            <mxGeometry x="248" y="395" width="30" height="60" as="geometry" />
          </mxCell>
        </object>
        <object label="Администратор" id="OOqJBxfGVuUi6IXpPPiL-73">
          <mxCell style="shape=umlActor;verticalLabelPosition=bottom;verticalAlign=top;html=1;outlineConnect=0;metaEdit=1;" vertex="1" parent="1">
            <mxGeometry x="607" y="528" width="30" height="60" as="geometry" />
          </mxCell>
        </object>
        <mxCell id="OOqJBxfGVuUi6IXpPPiL-74" value="" style="endArrow=none;html=1;rounded=0;" edge="1" parent="1" source="OOqJBxfGVuUi6IXpPPiL-70" target="OOqJBxfGVuUi6IXpPPiL-31">
          <mxGeometry width="50" height="50" relative="1" as="geometry">
            <mxPoint x="320" y="450" as="sourcePoint" />
            <mxPoint x="530" y="300" as="targetPoint" />
          </mxGeometry>
        </mxCell>
        <mxCell id="OOqJBxfGVuUi6IXpPPiL-76" value="Выдавать предупреждения" style="ellipse;whiteSpace=wrap;html=1;" vertex="1" parent="1">
          <mxGeometry x="20" y="374" width="120" height="80" as="geometry" />
        </mxCell>
        <mxCell id="OOqJBxfGVuUi6IXpPPiL-77" value="Отвечать на вопросы" style="ellipse;whiteSpace=wrap;html=1;" vertex="1" parent="1">
          <mxGeometry x="88" y="282" width="120" height="80" as="geometry" />
        </mxCell>
        <mxCell id="OOqJBxfGVuUi6IXpPPiL-78" value="Управление учётными&amp;nbsp;&lt;div&gt;записями&lt;/div&gt;" style="ellipse;whiteSpace=wrap;html=1;" vertex="1" parent="1">
          <mxGeometry x="415" y="588" width="120" height="80" as="geometry" />
        </mxCell>
        <mxCell id="OOqJBxfGVuUi6IXpPPiL-79" value="Управление данными, хранящимися на сервере" style="ellipse;whiteSpace=wrap;html=1;" vertex="1" parent="1">
          <mxGeometry x="750" y="508" width="120" height="80" as="geometry" />
        </mxCell>
        <mxCell id="OOqJBxfGVuUi6IXpPPiL-81" value="Удалить заметку" style="ellipse;whiteSpace=wrap;html=1;" vertex="1" parent="1">
          <mxGeometry x="940" y="265" width="120" height="80" as="geometry" />
        </mxCell>
        <mxCell id="OOqJBxfGVuUi6IXpPPiL-85" value="Открыть заметку" style="ellipse;whiteSpace=wrap;html=1;" vertex="1" parent="1">
          <mxGeometry x="840" y="120" width="120" height="80" as="geometry" />
        </mxCell>
        <mxCell id="OOqJBxfGVuUi6IXpPPiL-87" value="Просмотреть&amp;nbsp;&lt;div&gt;список (своих) заметок&lt;/div&gt;" style="ellipse;whiteSpace=wrap;html=1;" vertex="1" parent="1">
          <mxGeometry x="465" y="390" width="120" height="80" as="geometry" />
        </mxCell>
        <mxCell id="OOqJBxfGVuUi6IXpPPiL-88" value="" style="endArrow=none;html=1;rounded=0;" edge="1" parent="1" source="OOqJBxfGVuUi6IXpPPiL-87">
          <mxGeometry width="50" height="50" relative="1" as="geometry">
            <mxPoint x="540" y="410" as="sourcePoint" />
            <mxPoint x="590" y="370" as="targetPoint" />
          </mxGeometry>
        </mxCell>
        <mxCell id="OOqJBxfGVuUi6IXpPPiL-89" value="Поделиться заметкой" style="ellipse;whiteSpace=wrap;html=1;" vertex="1" parent="1">
          <mxGeometry x="850" y="342" width="120" height="80" as="geometry" />
        </mxCell>
        <mxCell id="OOqJBxfGVuUi6IXpPPiL-90" value="" style="endArrow=none;html=1;rounded=0;" edge="1" parent="1" source="OOqJBxfGVuUi6IXpPPiL-10" target="OOqJBxfGVuUi6IXpPPiL-85">
          <mxGeometry width="50" height="50" relative="1" as="geometry">
            <mxPoint x="640" y="310" as="sourcePoint" />
            <mxPoint x="880" y="180" as="targetPoint" />
          </mxGeometry>
        </mxCell>
        <mxCell id="OOqJBxfGVuUi6IXpPPiL-91" value="" style="endArrow=none;html=1;rounded=0;" edge="1" parent="1" source="OOqJBxfGVuUi6IXpPPiL-10" target="OOqJBxfGVuUi6IXpPPiL-14">
          <mxGeometry width="50" height="50" relative="1" as="geometry">
            <mxPoint x="810" y="310" as="sourcePoint" />
            <mxPoint x="860" y="260" as="targetPoint" />
          </mxGeometry>
        </mxCell>
        <mxCell id="OOqJBxfGVuUi6IXpPPiL-92" value="" style="endArrow=none;html=1;rounded=0;" edge="1" parent="1" source="OOqJBxfGVuUi6IXpPPiL-10" target="OOqJBxfGVuUi6IXpPPiL-81">
          <mxGeometry width="50" height="50" relative="1" as="geometry">
            <mxPoint x="810" y="310" as="sourcePoint" />
            <mxPoint x="860" y="260" as="targetPoint" />
          </mxGeometry>
        </mxCell>
        <mxCell id="OOqJBxfGVuUi6IXpPPiL-93" value="" style="endArrow=none;html=1;rounded=0;" edge="1" parent="1" source="OOqJBxfGVuUi6IXpPPiL-10" target="OOqJBxfGVuUi6IXpPPiL-89">
          <mxGeometry width="50" height="50" relative="1" as="geometry">
            <mxPoint x="810" y="310" as="sourcePoint" />
            <mxPoint x="860" y="260" as="targetPoint" />
          </mxGeometry>
        </mxCell>
        <mxCell id="OOqJBxfGVuUi6IXpPPiL-94" value="" style="endArrow=block;html=1;rounded=0;endFill=0;" edge="1" parent="1" source="OOqJBxfGVuUi6IXpPPiL-73">
          <mxGeometry width="50" height="50" relative="1" as="geometry">
            <mxPoint x="530" y="530" as="sourcePoint" />
            <mxPoint x="620" y="370" as="targetPoint" />
          </mxGeometry>
        </mxCell>
        <mxCell id="OOqJBxfGVuUi6IXpPPiL-95" value="Закрывать&amp;nbsp;&lt;div&gt;пользователю&lt;/div&gt;&lt;div&gt;доступ к чату на некоторое время&lt;/div&gt;" style="ellipse;whiteSpace=wrap;html=1;" vertex="1" parent="1">
          <mxGeometry x="53" y="480" width="120" height="90" as="geometry" />
        </mxCell>
        <mxCell id="OOqJBxfGVuUi6IXpPPiL-96" value="Просматривать сообщения" style="ellipse;whiteSpace=wrap;html=1;" vertex="1" parent="1">
          <mxGeometry x="250" y="262" width="120" height="80" as="geometry" />
        </mxCell>
        <mxCell id="OOqJBxfGVuUi6IXpPPiL-97" value="Удалить сообщение" style="ellipse;whiteSpace=wrap;html=1;" vertex="1" parent="1">
          <mxGeometry x="150" y="160" width="120" height="80" as="geometry" />
        </mxCell>
        <object label="" id="OOqJBxfGVuUi6IXpPPiL-98">
          <mxCell style="endArrow=blockThin;dashed=1;endFill=1;endSize=12;html=1;rounded=0;metaEdit=0;" edge="1" parent="1" source="OOqJBxfGVuUi6IXpPPiL-43">
            <mxGeometry x="0.003" width="160" relative="1" as="geometry">
              <mxPoint x="358.5" y="184" as="sourcePoint" />
              <mxPoint x="441.5" y="200" as="targetPoint" />
              <mxPoint as="offset" />
            </mxGeometry>
          </mxCell>
        </object>
        <object label="" id="OOqJBxfGVuUi6IXpPPiL-99">
          <mxCell style="endArrow=blockThin;dashed=1;endFill=1;endSize=12;html=1;rounded=0;metaEdit=0;" edge="1" parent="1" source="OOqJBxfGVuUi6IXpPPiL-97" target="OOqJBxfGVuUi6IXpPPiL-31">
            <mxGeometry x="0.003" width="160" relative="1" as="geometry">
              <mxPoint x="190" y="92" as="sourcePoint" />
              <mxPoint x="273" y="108" as="targetPoint" />
              <mxPoint as="offset" />
            </mxGeometry>
          </mxCell>
        </object>
        <object label="" id="OOqJBxfGVuUi6IXpPPiL-100">
          <mxCell style="endArrow=blockThin;dashed=1;endFill=1;endSize=12;html=1;rounded=0;metaEdit=0;" edge="1" parent="1" source="OOqJBxfGVuUi6IXpPPiL-96" target="OOqJBxfGVuUi6IXpPPiL-31">
            <mxGeometry x="0.003" width="160" relative="1" as="geometry">
              <mxPoint x="200" y="102" as="sourcePoint" />
              <mxPoint x="283" y="118" as="targetPoint" />
              <mxPoint as="offset" />
            </mxGeometry>
          </mxCell>
        </object>
        <mxCell id="OOqJBxfGVuUi6IXpPPiL-101" value="&quot;extend&quot;" style="text;html=1;align=center;verticalAlign=middle;whiteSpace=wrap;rounded=0;rotation=5;" vertex="1" parent="1">
          <mxGeometry x="310" y="187" width="60" height="30" as="geometry" />
        </mxCell>
        <mxCell id="OOqJBxfGVuUi6IXpPPiL-102" value="&quot;extend&quot;" style="text;html=1;align=center;verticalAlign=middle;whiteSpace=wrap;rounded=0;rotation=40;" vertex="1" parent="1">
          <mxGeometry x="366" y="138" width="60" height="30" as="geometry" />
        </mxCell>
        <mxCell id="OOqJBxfGVuUi6IXpPPiL-103" value="&quot;extend&quot;" style="text;html=1;align=center;verticalAlign=middle;whiteSpace=wrap;rounded=0;rotation=-20;" vertex="1" parent="1">
          <mxGeometry x="355" y="244" width="60" height="30" as="geometry" />
        </mxCell>
        <mxCell id="OOqJBxfGVuUi6IXpPPiL-104" value="" style="endArrow=none;html=1;rounded=0;" edge="1" parent="1" source="OOqJBxfGVuUi6IXpPPiL-77" target="OOqJBxfGVuUi6IXpPPiL-70">
          <mxGeometry width="50" height="50" relative="1" as="geometry">
            <mxPoint x="118" y="472" as="sourcePoint" />
            <mxPoint x="168" y="422" as="targetPoint" />
          </mxGeometry>
        </mxCell>
        <mxCell id="OOqJBxfGVuUi6IXpPPiL-105" value="" style="endArrow=none;html=1;rounded=0;" edge="1" parent="1" source="OOqJBxfGVuUi6IXpPPiL-76" target="OOqJBxfGVuUi6IXpPPiL-70">
          <mxGeometry width="50" height="50" relative="1" as="geometry">
            <mxPoint x="118" y="472" as="sourcePoint" />
            <mxPoint x="168" y="422" as="targetPoint" />
          </mxGeometry>
        </mxCell>
        <mxCell id="OOqJBxfGVuUi6IXpPPiL-106" value="" style="endArrow=none;html=1;rounded=0;" edge="1" parent="1" source="OOqJBxfGVuUi6IXpPPiL-95" target="OOqJBxfGVuUi6IXpPPiL-70">
          <mxGeometry width="50" height="50" relative="1" as="geometry">
            <mxPoint x="118" y="482" as="sourcePoint" />
            <mxPoint x="168" y="432" as="targetPoint" />
          </mxGeometry>
        </mxCell>
        <mxCell id="OOqJBxfGVuUi6IXpPPiL-110" value="Блокирование аккаунта пользователя" style="ellipse;whiteSpace=wrap;html=1;" vertex="1" parent="1">
          <mxGeometry x="203" y="570" width="120" height="80" as="geometry" />
        </mxCell>
        <mxCell id="OOqJBxfGVuUi6IXpPPiL-111" value="Создание&amp;nbsp;&lt;div&gt;акканута новому пользователю&lt;/div&gt;" style="ellipse;whiteSpace=wrap;html=1;" vertex="1" parent="1">
          <mxGeometry x="260" y="700" width="120" height="80" as="geometry" />
        </mxCell>
        <mxCell id="OOqJBxfGVuUi6IXpPPiL-113" value="" style="endArrow=block;html=1;rounded=0;endFill=0;" edge="1" parent="1" source="OOqJBxfGVuUi6IXpPPiL-73" target="OOqJBxfGVuUi6IXpPPiL-70">
          <mxGeometry width="50" height="50" relative="1" as="geometry">
            <mxPoint x="632" y="499" as="sourcePoint" />
            <mxPoint x="630" y="380" as="targetPoint" />
          </mxGeometry>
        </mxCell>
        <mxCell id="OOqJBxfGVuUi6IXpPPiL-114" value="Поддержка пользователей" style="ellipse;whiteSpace=wrap;html=1;" vertex="1" parent="1">
          <mxGeometry x="750" y="650" width="120" height="80" as="geometry" />
        </mxCell>
        <mxCell id="OOqJBxfGVuUi6IXpPPiL-115" value="Обновление документации" style="ellipse;whiteSpace=wrap;html=1;" vertex="1" parent="1">
          <mxGeometry x="990" y="600" width="120" height="80" as="geometry" />
        </mxCell>
        <mxCell id="OOqJBxfGVuUi6IXpPPiL-116" value="Решение технических проблем" style="ellipse;whiteSpace=wrap;html=1;" vertex="1" parent="1">
          <mxGeometry x="960" y="730" width="120" height="80" as="geometry" />
        </mxCell>
        <mxCell id="OOqJBxfGVuUi6IXpPPiL-117" value="Настройка безопасности" style="ellipse;whiteSpace=wrap;html=1;" vertex="1" parent="1">
          <mxGeometry x="562" y="710" width="120" height="80" as="geometry" />
        </mxCell>
        <mxCell id="OOqJBxfGVuUi6IXpPPiL-118" value="" style="endArrow=none;html=1;rounded=0;" edge="1" parent="1" source="OOqJBxfGVuUi6IXpPPiL-79" target="OOqJBxfGVuUi6IXpPPiL-73">
          <mxGeometry width="50" height="50" relative="1" as="geometry">
            <mxPoint x="500" y="560" as="sourcePoint" />
            <mxPoint x="550" y="510" as="targetPoint" />
          </mxGeometry>
        </mxCell>
        <mxCell id="OOqJBxfGVuUi6IXpPPiL-119" value="" style="endArrow=none;html=1;rounded=0;" edge="1" parent="1" source="OOqJBxfGVuUi6IXpPPiL-73" target="OOqJBxfGVuUi6IXpPPiL-114">
          <mxGeometry width="50" height="50" relative="1" as="geometry">
            <mxPoint x="500" y="560" as="sourcePoint" />
            <mxPoint x="550" y="510" as="targetPoint" />
          </mxGeometry>
        </mxCell>
        <object label="" id="OOqJBxfGVuUi6IXpPPiL-120">
          <mxCell style="endArrow=blockThin;dashed=1;endFill=1;endSize=12;html=1;rounded=0;metaEdit=0;" edge="1" parent="1" source="OOqJBxfGVuUi6IXpPPiL-114" target="OOqJBxfGVuUi6IXpPPiL-115">
            <mxGeometry x="0.003" width="160" relative="1" as="geometry">
              <mxPoint x="928" y="484" as="sourcePoint" />
              <mxPoint x="931" y="677" as="targetPoint" />
              <mxPoint as="offset" />
            </mxGeometry>
          </mxCell>
        </object>
        <object label="" id="OOqJBxfGVuUi6IXpPPiL-121">
          <mxCell style="endArrow=blockThin;dashed=1;endFill=1;endSize=12;html=1;rounded=0;metaEdit=0;" edge="1" parent="1" source="OOqJBxfGVuUi6IXpPPiL-114" target="OOqJBxfGVuUi6IXpPPiL-116">
            <mxGeometry x="0.003" width="160" relative="1" as="geometry">
              <mxPoint x="879" y="694" as="sourcePoint" />
              <mxPoint x="941" y="687" as="targetPoint" />
              <mxPoint as="offset" />
            </mxGeometry>
          </mxCell>
        </object>
        <mxCell id="OOqJBxfGVuUi6IXpPPiL-122" value="" style="endArrow=none;html=1;rounded=0;" edge="1" parent="1" source="OOqJBxfGVuUi6IXpPPiL-73" target="OOqJBxfGVuUi6IXpPPiL-78">
          <mxGeometry width="50" height="50" relative="1" as="geometry">
            <mxPoint x="390" y="560" as="sourcePoint" />
            <mxPoint x="440" y="510" as="targetPoint" />
          </mxGeometry>
        </mxCell>
        <mxCell id="OOqJBxfGVuUi6IXpPPiL-123" value="" style="endArrow=none;html=1;rounded=0;" edge="1" parent="1" source="OOqJBxfGVuUi6IXpPPiL-117">
          <mxGeometry width="50" height="50" relative="1" as="geometry">
            <mxPoint x="390" y="560" as="sourcePoint" />
            <mxPoint x="620" y="610" as="targetPoint" />
          </mxGeometry>
        </mxCell>
        <object label="" id="OOqJBxfGVuUi6IXpPPiL-124">
          <mxCell style="endArrow=blockThin;dashed=1;endFill=1;endSize=12;html=1;rounded=0;metaEdit=0;" edge="1" parent="1" source="OOqJBxfGVuUi6IXpPPiL-110" target="OOqJBxfGVuUi6IXpPPiL-78">
            <mxGeometry x="0.003" width="160" relative="1" as="geometry">
              <mxPoint x="371" y="290" as="sourcePoint" />
              <mxPoint x="450" y="257" as="targetPoint" />
              <mxPoint as="offset" />
            </mxGeometry>
          </mxCell>
        </object>
        <object label="" id="OOqJBxfGVuUi6IXpPPiL-125">
          <mxCell style="endArrow=blockThin;dashed=1;endFill=1;endSize=12;html=1;rounded=0;metaEdit=0;" edge="1" parent="1" source="OOqJBxfGVuUi6IXpPPiL-111" target="OOqJBxfGVuUi6IXpPPiL-78">
            <mxGeometry x="0.003" width="160" relative="1" as="geometry">
              <mxPoint x="333" y="625" as="sourcePoint" />
              <mxPoint x="425" y="633" as="targetPoint" />
              <mxPoint as="offset" />
            </mxGeometry>
          </mxCell>
        </object>
        <mxCell id="OOqJBxfGVuUi6IXpPPiL-126" value="&lt;span style=&quot;caret-color: rgb(0, 0, 0); color: rgb(0, 0, 0); font-family: Helvetica; font-size: 12px; font-style: normal; font-variant-caps: normal; font-weight: 400; letter-spacing: normal; orphans: auto; text-align: center; text-indent: 0px; text-transform: none; white-space: normal; widows: auto; word-spacing: 0px; -webkit-text-stroke-width: 0px; background-color: rgb(251, 251, 251); text-decoration: none; display: inline !important; float: none;&quot;&gt;&quot;extend&quot;&lt;/span&gt;" style="text;whiteSpace=wrap;html=1;rotation=5;" vertex="1" parent="1">
          <mxGeometry x="340" y="595" width="80" height="40" as="geometry" />
        </mxCell>
        <mxCell id="OOqJBxfGVuUi6IXpPPiL-127" value="&lt;span style=&quot;caret-color: rgb(0, 0, 0); color: rgb(0, 0, 0); font-family: Helvetica; font-size: 12px; font-style: normal; font-variant-caps: normal; font-weight: 400; letter-spacing: normal; orphans: auto; text-align: center; text-indent: 0px; text-transform: none; white-space: normal; widows: auto; word-spacing: 0px; -webkit-text-stroke-width: 0px; background-color: rgb(251, 251, 251); text-decoration: none; display: inline !important; float: none;&quot;&gt;&quot;extend&quot;&lt;/span&gt;" style="text;whiteSpace=wrap;html=1;rotation=-35;" vertex="1" parent="1">
          <mxGeometry x="365" y="655" width="80" height="40" as="geometry" />
        </mxCell>
        <mxCell id="OOqJBxfGVuUi6IXpPPiL-128" value="&lt;div style=&quot;text-align: center;&quot;&gt;&quot;include&quot;&lt;/div&gt;" style="text;whiteSpace=wrap;html=1;rotation=-10;" vertex="1" parent="1">
          <mxGeometry x="901" y="639" width="80" height="40" as="geometry" />
        </mxCell>
        <mxCell id="OOqJBxfGVuUi6IXpPPiL-130" value="&lt;div style=&quot;text-align: center;&quot;&gt;&quot;include&quot;&lt;/div&gt;" style="text;whiteSpace=wrap;html=1;rotation=20;" vertex="1" parent="1">
          <mxGeometry x="887" y="710" width="80" height="40" as="geometry" />
        </mxCell>
      </root>
    </mxGraphModel>
  </diagram>
</mxfile>
